<?xml version="1.0" encoding="utf-8"?>
<!-- Generator: Adobe Illustrator 16.0.0, SVG Export Plug-In . SVG Version: 6.00 Build 0)  -->
<!DOCTYPE svg PUBLIC "-//W3C//DTD SVG 1.1//EN" "http://www.w3.org/Graphics/SVG/1.1/DTD/svg11.dtd">
<svg version="1.1" id="Capa_27" xmlns="http://www.w3.org/2000/svg" xmlns:xlink="http://www.w3.org/1999/xlink" x="0px" y="0px"
	 width="74.075px" height="72.46px" viewBox="14.259 8.214 74.075 72.46" enable-background="new 14.259 8.214 74.075 72.46"
	 xml:space="preserve">
<g>
	<path d="M51.298,41.308c-1.772,0-3.206,1.406-3.206,3.136c0,1.728,1.434,3.135,3.206,3.135c1.765,0,3.202-1.406,3.202-3.135
		C54.5,42.715,53.062,41.308,51.298,41.308z M51.298,46.592c-1.217,0-2.199-0.962-2.199-2.147c0-1.188,0.981-2.147,2.199-2.147
		c1.21,0,2.195,0.96,2.195,2.147C53.493,45.63,52.508,46.592,51.298,46.592z"/>
	<path d="M51.298,8.214c-20.457,0-37.039,16.222-37.039,36.23c0,20.01,16.582,36.229,37.039,36.229
		c20.452,0,37.036-16.219,37.036-36.229C88.334,24.436,71.75,8.214,51.298,8.214z M38.104,44.444
		c0-7.126,5.907-12.901,13.193-12.901c7.282,0,13.187,5.774,13.187,12.901c0,7.124-5.904,12.901-13.187,12.901
		C44.012,57.346,38.104,51.568,38.104,44.444z M57.453,59.979c4.161-1.325,7.54-4.363,9.253-8.264l0.685,0.316
		c-1.797,4.076-5.32,7.251-9.666,8.648L57.453,59.979z M58.787,63.393c5.01-1.756,9.076-5.436,11.271-10.135l0.697,0.32
		c-2.276,4.875-6.498,8.707-11.686,10.534L58.787,63.393z M60.131,66.829c5.86-2.177,10.637-6.516,13.306-12.02l0.685,0.315
		c-2.75,5.679-7.674,10.156-13.714,12.404L60.131,66.829z M61.466,70.241c6.712-2.591,12.196-7.578,15.331-13.888l0.686,0.316
		c-3.217,6.484-8.85,11.611-15.742,14.273L61.466,70.241z M63.074,74.354l-0.271-0.699c7.562-3,13.749-8.645,17.35-15.759
		l0.686,0.315C77.154,65.5,70.821,71.283,63.074,74.354z"/>
</g>
</svg>
