<?xml version="1.0" encoding="utf-8"?>
<!-- Generator: Adobe Illustrator 16.0.0, SVG Export Plug-In . SVG Version: 6.00 Build 0)  -->
<!DOCTYPE svg PUBLIC "-//W3C//DTD SVG 1.1//EN" "http://www.w3.org/Graphics/SVG/1.1/DTD/svg11.dtd">
<svg version="1.1" id="Layer_1" xmlns="http://www.w3.org/2000/svg" xmlns:xlink="http://www.w3.org/1999/xlink" x="0px" y="0px"
	 width="13.147px" height="21.667px" viewBox="9.841 0.189 13.147 21.667" enable-background="new 9.841 0.189 13.147 21.667"
	 xml:space="preserve">
<path id="mic" d="M16.415,15.189c1.986,0,3.61-1.667,3.61-3.704V3.893c0-2.037-1.624-3.704-3.61-3.704
	c-1.987,0-3.611,1.667-3.611,3.704v7.593C12.804,13.522,14.428,15.189,16.415,15.189z M20.768,7.689v3.796
	c0,2.451-1.953,4.444-4.353,4.444c-2.4,0-4.352-1.993-4.352-4.444V7.689H9.841v3.796c0,3.291,2.366,6.023,5.461,6.563v1.584h-2.498
	v2.223h7.221v-2.223h-2.5v-1.584c3.097-0.54,5.463-3.272,5.463-6.563V7.689H20.768z"/>
</svg>
